<?xml version="1.0" encoding="UTF-8" standalone="no"?>
<!-- Created with Inkscape (http://www.inkscape.org/) -->

<svg
   xmlns:dc="http://purl.org/dc/elements/1.1/"
   xmlns:cc="http://creativecommons.org/ns#"
   xmlns:rdf="http://www.w3.org/1999/02/22-rdf-syntax-ns#"
   xmlns:svg="http://www.w3.org/2000/svg"
   xmlns="http://www.w3.org/2000/svg"
   xmlns:sodipodi="http://sodipodi.sourceforge.net/DTD/sodipodi-0.dtd"
   xmlns:inkscape="http://www.inkscape.org/namespaces/inkscape"
   width="24"
   height="24"
   viewBox="0 0 6.3499999 6.3500002"
   version="1.1"
   id="svg8"
   inkscape:version="0.92.4 (5da689c313, 2019-01-14)"
   sodipodi:docname="13. Exchange.svg">
  <defs
     id="defs2">
    <pattern
       y="0"
       x="0"
       height="6"
       width="6"
       patternUnits="userSpaceOnUse"
       id="EMFhbasepattern" />
    <pattern
       y="0"
       x="0"
       height="6"
       width="6"
       patternUnits="userSpaceOnUse"
       id="EMFhbasepattern-3" />
    <pattern
       y="0"
       x="0"
       height="6"
       width="6"
       patternUnits="userSpaceOnUse"
       id="EMFhbasepattern-2" />
    <pattern
       y="0"
       x="0"
       height="6"
       width="6"
       patternUnits="userSpaceOnUse"
       id="EMFhbasepattern-1" />
    <pattern
       y="0"
       x="0"
       height="6"
       width="6"
       patternUnits="userSpaceOnUse"
       id="EMFhbasepattern-5" />
  </defs>
  <sodipodi:namedview
     id="base"
     pagecolor="#ffffff"
     bordercolor="#666666"
     borderopacity="1.0"
     inkscape:pageopacity="0.0"
     inkscape:pageshadow="2"
     inkscape:zoom="11.313708"
     inkscape:cx="-0.86692414"
     inkscape:cy="11.986414"
     inkscape:document-units="px"
     inkscape:current-layer="layer1"
     showgrid="false"
     units="px"
     inkscape:window-width="1280"
     inkscape:window-height="658"
     inkscape:window-x="-8"
     inkscape:window-y="-8"
     inkscape:window-maximized="1"
     showguides="true"
     guidecolor="#af0000"
     guideopacity="0.49803922"
     guidehicolor="#ff4b4b"
     guidehiopacity="0.49803922"
     inkscape:snap-global="false">
    <inkscape:grid
       type="xygrid"
       id="grid815"
       empspacing="1"
       originx="0"
       originy="0"
       spacingx="0"
       spacingy="0"
       snapvisiblegridlinesonly="true"
       visible="true"
       enabled="true"
       dotted="false" />
  </sodipodi:namedview>
  <metadata
     id="metadata5">
    <rdf:RDF>
      <cc:Work
         rdf:about="">
        <dc:format>image/svg+xml</dc:format>
        <dc:type
           rdf:resource="http://purl.org/dc/dcmitype/StillImage" />
        <dc:title />
      </cc:Work>
    </rdf:RDF>
  </metadata>
  <g
     inkscape:label="Guides"
     inkscape:groupmode="layer"
     id="layer1"
     transform="translate(0,-290.64999)">
    <path
       sodipodi:nodetypes="sssss"
       inkscape:connector-curvature="0"
       id="path878"
       d="m 4.1347655,291.76908 c -0.5779183,0 -1.038843,0.47477 -1.038843,1.04732 0,0.57257 0.4609247,1.04732 1.038843,1.04732 0.5711306,0 1.0388431,-0.47321 1.0388431,-1.04732 0,-0.5741 -0.4677125,-1.04732 -1.0388431,-1.04732 z"
       style="color:#000000;font-style:normal;font-variant:normal;font-weight:normal;font-stretch:normal;font-size:medium;line-height:normal;font-family:sans-serif;font-variant-ligatures:normal;font-variant-position:normal;font-variant-caps:normal;font-variant-numeric:normal;font-variant-alternates:normal;font-feature-settings:normal;text-indent:0;text-align:start;text-decoration:none;text-decoration-line:none;text-decoration-style:solid;text-decoration-color:#000000;letter-spacing:normal;word-spacing:normal;text-transform:none;writing-mode:lr-tb;direction:ltr;text-orientation:mixed;dominant-baseline:auto;baseline-shift:baseline;text-anchor:start;white-space:normal;shape-padding:0;clip-rule:nonzero;display:inline;overflow:visible;visibility:visible;opacity:1;isolation:auto;mix-blend-mode:normal;color-interpolation:sRGB;color-interpolation-filters:linearRGB;solid-color:#000000;solid-opacity:1;vector-effect:none;fill:#236a43;fill-opacity:1;fill-rule:nonzero;stroke:none;stroke-width:0.26458335;stroke-linecap:round;stroke-linejoin:round;stroke-miterlimit:4;stroke-dasharray:none;stroke-dashoffset:0;stroke-opacity:1;color-rendering:auto;image-rendering:auto;shape-rendering:auto;text-rendering:auto;enable-background:accumulate" />
    <path
       style="color:#000000;font-style:normal;font-variant:normal;font-weight:normal;font-stretch:normal;font-size:medium;line-height:normal;font-family:sans-serif;font-variant-ligatures:normal;font-variant-position:normal;font-variant-caps:normal;font-variant-numeric:normal;font-variant-alternates:normal;font-feature-settings:normal;text-indent:0;text-align:start;text-decoration:none;text-decoration-line:none;text-decoration-style:solid;text-decoration-color:#000000;letter-spacing:normal;word-spacing:normal;text-transform:none;writing-mode:lr-tb;direction:ltr;text-orientation:mixed;dominant-baseline:auto;baseline-shift:baseline;text-anchor:start;white-space:normal;shape-padding:0;clip-rule:nonzero;display:inline;overflow:visible;visibility:visible;opacity:1;isolation:auto;mix-blend-mode:normal;color-interpolation:sRGB;color-interpolation-filters:linearRGB;solid-color:#000000;solid-opacity:1;vector-effect:none;fill:#1e4734;fill-opacity:1;fill-rule:nonzero;stroke:none;stroke-width:1;stroke-linecap:round;stroke-linejoin:round;stroke-miterlimit:4;stroke-dasharray:none;stroke-dashoffset:0;stroke-opacity:1;paint-order:normal;color-rendering:auto;image-rendering:auto;shape-rendering:auto;text-rendering:auto;enable-background:accumulate"
       d="M 11.050781 3.4902344 L 11.050781 3.4921875 A 0.50005001 0.50005001 0 0 0 10.998047 3.5 A 0.50005001 0.50005001 0 0 0 10.955078 3.5078125 A 0.50005001 0.50005001 0 0 0 10.859375 3.546875 A 0.50005001 0.50005001 0 0 0 10.769531 3.5976562 A 0.50005001 0.50005001 0 0 0 10.732422 3.6289062 A 0.50005001 0.50005001 0 0 0 10.703125 3.6660156 A 0.50005001 0.50005001 0 0 0 10.644531 3.7480469 A 0.50005001 0.50005001 0 0 0 10.623047 3.7910156 A 0.50005001 0.50005001 0 0 0 10.599609 3.84375 A 0.50005001 0.50005001 0 0 0 10.578125 3.9902344 A 0.50005001 0.50005001 0 0 0 10.585938 4.09375 L 10.783203 5.0097656 C 10.177009 4.7739387 9.5358766 4.6381585 8.8808594 4.6367188 C 5.9110567 4.6368321 3.4980871 7.1026864 3.4980469 10.115234 C 3.4995356 11.197578 3.8137049 12.255967 4.40625 13.15625 A 0.50164153 0.50164153 0 1 0 5.2480469 12.609375 C 4.7635991 11.87335 4.5051285 11.003688 4.5039062 10.115234 C 4.5039395 7.6326517 6.4621598 5.6407006 8.8808594 5.640625 C 9.4550903 5.6418651 10.018387 5.7641139 10.544922 5.9863281 L 9.390625 6.5898438 A 0.50005001 0.50005001 0 0 0 9.3457031 6.6191406 A 0.50005001 0.50005001 0 0 0 9.3085938 6.6503906 A 0.50005001 0.50005001 0 0 0 9.2714844 6.6796875 A 0.50005001 0.50005001 0 0 0 9.234375 6.7167969 A 0.50005001 0.50005001 0 0 0 9.2050781 6.7617188 A 0.50005001 0.50005001 0 0 0 9.1835938 6.8066406 A 0.50005001 0.50005001 0 0 0 9.1601562 6.8496094 A 0.50005001 0.50005001 0 0 0 9.1464844 6.8945312 A 0.50005001 0.50005001 0 0 0 9.1386719 6.9472656 A 0.50005001 0.50005001 0 0 0 9.1308594 6.9980469 A 0.50005001 0.50005001 0 0 0 9.1308594 7.0429688 A 0.50005001 0.50005001 0 0 0 9.1308594 7.09375 A 0.50005001 0.50005001 0 0 0 9.1386719 7.1464844 A 0.50005001 0.50005001 0 0 0 9.1542969 7.1894531 A 0.50005001 0.50005001 0 0 0 9.1757812 7.2421875 A 0.50005001 0.50005001 0 0 0 9.1972656 7.2871094 A 0.50005001 0.50005001 0 0 0 9.2207031 7.3242188 A 0.50005001 0.50005001 0 0 0 9.2578125 7.3671875 A 0.50005001 0.50005001 0 0 0 9.2871094 7.3984375 A 0.50005001 0.50005001 0 0 0 9.3300781 7.4355469 A 0.50005001 0.50005001 0 0 0 9.4570312 7.5019531 A 0.50005001 0.50005001 0 0 0 9.5078125 7.5175781 A 0.50005001 0.50005001 0 0 0 9.65625 7.5332031 A 0.50005001 0.50005001 0 0 0 9.7070312 7.5253906 A 0.50005001 0.50005001 0 0 0 9.7519531 7.5175781 A 0.50005001 0.50005001 0 0 0 9.8476562 7.4804688 A 0.50005001 0.50005001 0 0 0 9.8554688 7.4804688 L 11.736328 6.4902344 A 0.50005001 0.50005001 0 0 0 11.818359 6.4316406 A 0.50005001 0.50005001 0 0 0 11.839844 6.4160156 A 0.50005001 0.50005001 0 0 0 11.863281 6.4023438 A 0.50005001 0.50005001 0 0 0 11.863281 6.3945312 A 0.50005001 0.50005001 0 0 0 11.892578 6.3632812 A 0.50005001 0.50005001 0 0 0 11.900391 6.3554688 A 0.50005001 0.50005001 0 0 0 11.921875 6.3261719 A 0.50005001 0.50005001 0 0 0 11.929688 6.3183594 A 0.50005001 0.50005001 0 0 0 11.935547 6.3027344 A 0.50005001 0.50005001 0 0 0 11.951172 6.28125 A 0.50005001 0.50005001 0 0 0 11.951172 6.2734375 A 0.50005001 0.50005001 0 0 0 11.972656 6.234375 A 0.50005001 0.50005001 0 0 0 11.972656 6.2285156 A 0.50005001 0.50005001 0 0 0 11.988281 6.1894531 A 0.50005001 0.50005001 0 0 0 11.988281 6.1757812 A 0.50005001 0.50005001 0 0 0 12.001953 6.1367188 A 0.50005001 0.50005001 0 0 0 12.001953 6.1289062 A 0.50005001 0.50005001 0 0 0 12.009766 6.0917969 A 0.50005001 0.50005001 0 0 0 12.009766 6.0761719 A 0.50005001 0.50005001 0 0 0 12.017578 6.0390625 A 0.50005001 0.50005001 0 0 0 12.009766 5.9355469 A 0.50005001 0.50005001 0 0 0 12.001953 5.9277344 L 11.988281 5.8671875 A 0.50005001 0.50005001 0 0 0 11.966797 5.7597656 A 0.50005001 0.50005001 0 0 0 11.964844 5.7578125 L 11.566406 3.875 A 0.50005001 0.50005001 0 0 0 11.552734 3.8320312 A 0.50005001 0.50005001 0 0 0 11.486328 3.6992188 A 0.50005001 0.50005001 0 0 0 11.294922 3.5371094 A 0.50005001 0.50005001 0 0 0 11.25 3.5214844 A 0.50005001 0.50005001 0 0 0 11.146484 3.4980469 A 0.50005001 0.50005001 0 0 0 11.050781 3.4902344 z "
       transform="matrix(0.26458334,0,0,0.26458334,0,290.64999)"
       id="path1006" />
    <path
       style="color:#000000;font-style:normal;font-variant:normal;font-weight:normal;font-stretch:normal;font-size:medium;line-height:normal;font-family:sans-serif;font-variant-ligatures:normal;font-variant-position:normal;font-variant-caps:normal;font-variant-numeric:normal;font-variant-alternates:normal;font-feature-settings:normal;text-indent:0;text-align:start;text-decoration:none;text-decoration-line:none;text-decoration-style:solid;text-decoration-color:#000000;letter-spacing:normal;word-spacing:normal;text-transform:none;writing-mode:lr-tb;direction:ltr;text-orientation:mixed;dominant-baseline:auto;baseline-shift:baseline;text-anchor:start;white-space:normal;shape-padding:0;clip-rule:nonzero;display:inline;overflow:visible;visibility:visible;opacity:1;isolation:auto;mix-blend-mode:normal;color-interpolation:sRGB;color-interpolation-filters:linearRGB;solid-color:#000000;solid-opacity:1;vector-effect:none;fill:#989900;fill-opacity:1;fill-rule:nonzero;stroke:none;stroke-width:1;stroke-linecap:round;stroke-linejoin:round;stroke-miterlimit:4;stroke-dasharray:none;stroke-dashoffset:0;stroke-opacity:1;paint-order:normal;color-rendering:auto;image-rendering:auto;shape-rendering:auto;text-rendering:auto;enable-background:accumulate"
       d="M 19.189453 10.519531 A 0.50005001 0.50005001 0 0 0 19.140625 10.521484 A 0.50005001 0.50005001 0 0 0 18.757812 11.289062 C 19.20839 12.008571 19.451119 12.847856 19.451172 13.703125 C 19.45114 16.185708 17.492913 18.175743 15.074219 18.175781 C 14.520065 18.174403 13.974349 18.060959 13.462891 17.853516 L 14.46875 17.324219 A 0.50005001 0.50005001 0 0 0 14.556641 17.271484 A 0.50005001 0.50005001 0 0 0 14.712891 17.021484 A 0.50005001 0.50005001 0 0 0 14.734375 16.873047 A 0.50005001 0.50005001 0 0 0 14.726562 16.822266 A 0.50005001 0.50005001 0 0 0 14.447266 16.429688 A 0.50005001 0.50005001 0 0 0 14.203125 16.386719 L 14.203125 16.382812 A 0.50005001 0.50005001 0 0 0 14.011719 16.433594 L 12.113281 17.429688 A 0.50005001 0.50005001 0 0 0 12.083984 17.453125 A 0.50005001 0.50005001 0 0 0 12.076172 17.453125 A 0.50005001 0.50005001 0 0 0 12.033203 17.482422 A 0.50005001 0.50005001 0 0 0 12.003906 17.513672 A 0.50005001 0.50005001 0 0 0 11.996094 17.521484 A 0.50005001 0.50005001 0 0 0 11.966797 17.550781 A 0.50005001 0.50005001 0 0 0 11.966797 17.558594 A 0.50005001 0.50005001 0 0 0 11.9375 17.589844 A 0.50005001 0.50005001 0 0 0 11.9375 17.595703 A 0.50005001 0.50005001 0 0 0 11.914062 17.634766 A 0.50005001 0.50005001 0 0 0 11.900391 17.664062 A 0.50005001 0.50005001 0 0 0 11.892578 17.679688 A 0.50005001 0.50005001 0 0 0 11.892578 17.6875 A 0.50005001 0.50005001 0 0 0 11.871094 17.738281 A 0.50005001 0.50005001 0 0 0 11.847656 17.828125 A 0.50005001 0.50005001 0 0 0 11.847656 17.871094 A 0.50005001 0.50005001 0 0 0 11.855469 17.974609 A 0.50005001 0.50005001 0 0 0 11.855469 17.982422 L 12.298828 20.035156 A 0.50005001 0.50005001 0 0 0 12.3125 20.078125 A 0.50005001 0.50005001 0 0 0 12.328125 20.130859 A 0.50005001 0.50005001 0 0 0 12.349609 20.175781 A 0.50005001 0.50005001 0 0 0 12.408203 20.255859 A 0.50005001 0.50005001 0 0 0 12.527344 20.34375 A 0.50005001 0.50005001 0 0 0 12.572266 20.375 A 0.50005001 0.50005001 0 0 0 12.763672 20.419922 A 0.50005001 0.50005001 0 0 0 12.814453 20.419922 A 0.50005001 0.50005001 0 0 0 12.859375 20.412109 A 0.50005001 0.50005001 0 0 0 12.910156 20.404297 A 0.50005001 0.50005001 0 0 0 13.007812 20.365234 A 0.50005001 0.50005001 0 0 0 13.050781 20.34375 A 0.50005001 0.50005001 0 0 0 13.244141 20.121094 A 0.50005001 0.50005001 0 0 0 13.257812 20.078125 A 0.50005001 0.50005001 0 0 0 13.273438 20.025391 A 0.50005001 0.50005001 0 0 0 13.287109 19.929688 A 0.50005001 0.50005001 0 0 0 13.279297 19.878906 A 0.50005001 0.50005001 0 0 0 13.273438 19.818359 L 13.044922 18.761719 C 13.684494 19.029783 14.36923 19.177956 15.066406 19.179688 A 0.50005001 0.50005001 0 0 0 15.074219 19.179688 C 18.044017 19.179612 20.447227 16.715673 20.447266 13.703125 C 20.447201 12.66092 20.156373 11.637573 19.605469 10.757812 A 0.50005001 0.50005001 0 0 0 19.189453 10.519531 z "
       transform="matrix(0.26458334,0,0,0.26458334,0,290.64999)"
       id="circle993" />
    <path
       style="color:#000000;font-style:normal;font-variant:normal;font-weight:normal;font-stretch:normal;font-size:medium;line-height:normal;font-family:sans-serif;font-variant-ligatures:normal;font-variant-position:normal;font-variant-caps:normal;font-variant-numeric:normal;font-variant-alternates:normal;font-feature-settings:normal;text-indent:0;text-align:start;text-decoration:none;text-decoration-line:none;text-decoration-style:solid;text-decoration-color:#000000;letter-spacing:normal;word-spacing:normal;text-transform:none;writing-mode:lr-tb;direction:ltr;text-orientation:mixed;dominant-baseline:auto;baseline-shift:baseline;text-anchor:start;white-space:normal;shape-padding:0;clip-rule:nonzero;display:inline;overflow:visible;visibility:visible;opacity:1;isolation:auto;mix-blend-mode:normal;color-interpolation:sRGB;color-interpolation-filters:linearRGB;solid-color:#000000;solid-opacity:1;vector-effect:none;fill:#eaeaea;fill-opacity:1;fill-rule:nonzero;stroke:none;stroke-width:0.26458335;stroke-linecap:round;stroke-linejoin:round;stroke-miterlimit:4;stroke-dasharray:none;stroke-dashoffset:0;stroke-opacity:1;color-rendering:auto;image-rendering:auto;shape-rendering:auto;text-rendering:auto;enable-background:accumulate"
       d="m 4.1347656,291.85156 c -0.5324057,0 -0.9570312,0.43739 -0.9570312,0.96485 0,0.52747 0.4246255,0.96484 0.9570312,0.96484 0.5261524,0 0.9570313,-0.43594 0.9570313,-0.96484 0,-0.5289 -0.4308789,-0.96485 -0.9570313,-0.96485 z"
       id="path1317"
       inkscape:connector-curvature="0"
       sodipodi:nodetypes="sssss" />
    <path
       style="color:#000000;font-style:normal;font-variant:normal;font-weight:normal;font-stretch:normal;font-size:medium;line-height:normal;font-family:sans-serif;font-variant-ligatures:normal;font-variant-position:normal;font-variant-caps:normal;font-variant-numeric:normal;font-variant-alternates:normal;font-feature-settings:normal;text-indent:0;text-align:start;text-decoration:none;text-decoration-line:none;text-decoration-style:solid;text-decoration-color:#000000;letter-spacing:normal;word-spacing:normal;text-transform:none;writing-mode:lr-tb;direction:ltr;text-orientation:mixed;dominant-baseline:auto;baseline-shift:baseline;text-anchor:start;white-space:normal;shape-padding:0;clip-rule:nonzero;display:inline;overflow:visible;visibility:visible;opacity:1;isolation:auto;mix-blend-mode:normal;color-interpolation:sRGB;color-interpolation-filters:linearRGB;solid-color:#000000;solid-opacity:1;vector-effect:none;fill:#157f68;fill-opacity:1;fill-rule:nonzero;stroke:none;stroke-width:1;stroke-linecap:round;stroke-linejoin:miter;stroke-miterlimit:4;stroke-dasharray:none;stroke-dashoffset:0;stroke-opacity:1;color-rendering:auto;image-rendering:auto;shape-rendering:auto;text-rendering:auto;enable-background:accumulate"
       d="M 15.619141 4.5332031 A 0.50005001 0.50005001 0 0 0 15.125 5.0429688 L 15.125 5.8925781 A 0.5019685 0.5019685 0 1 0 16.128906 5.8925781 L 16.128906 5.0429688 A 0.50005001 0.50005001 0 0 0 15.619141 4.5332031 z M 12.460938 7.6855469 A 0.50264243 0.50264243 0 0 0 12.511719 8.6894531 L 13.353516 8.6894531 A 0.50197795 0.50197795 0 1 0 13.353516 7.6855469 L 12.511719 7.6855469 A 0.50005001 0.50005001 0 0 0 12.460938 7.6855469 z M 17.849609 7.6855469 A 0.50264243 0.50264243 0 0 0 17.900391 8.6894531 L 18.712891 8.6894531 A 0.50197795 0.50197795 0 1 0 18.712891 7.6855469 L 17.900391 7.6855469 A 0.50005001 0.50005001 0 0 0 17.849609 7.6855469 z M 15.628906 9.9707031 A 0.50005001 0.50005001 0 0 0 15.568359 9.9746094 A 0.50005001 0.50005001 0 0 0 15.125 10.484375 L 15.125 11.332031 A 0.5019685 0.5019685 0 1 0 16.128906 11.332031 L 16.128906 10.484375 A 0.50005001 0.50005001 0 0 0 15.628906 9.9707031 z "
       id="path1319"
       transform="matrix(0.26458334,0,0,0.26458334,0,290.64999)" />
    <path
       style="color:#000000;font-style:normal;font-variant:normal;font-weight:normal;font-stretch:normal;font-size:medium;line-height:normal;font-family:sans-serif;font-variant-ligatures:normal;font-variant-position:normal;font-variant-caps:normal;font-variant-numeric:normal;font-variant-alternates:normal;font-feature-settings:normal;text-indent:0;text-align:start;text-decoration:none;text-decoration-line:none;text-decoration-style:solid;text-decoration-color:#000000;letter-spacing:normal;word-spacing:normal;text-transform:none;writing-mode:lr-tb;direction:ltr;text-orientation:mixed;dominant-baseline:auto;baseline-shift:baseline;text-anchor:start;white-space:normal;shape-padding:0;clip-rule:nonzero;display:inline;overflow:visible;visibility:visible;opacity:1;isolation:auto;mix-blend-mode:normal;color-interpolation:sRGB;color-interpolation-filters:linearRGB;solid-color:#000000;solid-opacity:1;vector-effect:none;fill:#da4545;fill-opacity:1;fill-rule:nonzero;stroke:none;stroke-width:1;stroke-linecap:round;stroke-linejoin:miter;stroke-miterlimit:4;stroke-dasharray:none;stroke-dashoffset:0;stroke-opacity:1;color-rendering:auto;image-rendering:auto;shape-rendering:auto;text-rendering:auto;enable-background:accumulate"
       d="M 15.621094 6.2050781 A 0.50005001 0.50005001 0 0 0 15.568359 6.2089844 A 0.50005001 0.50005001 0 0 0 15.125 6.7109375 L 15.125 8.0839844 A 0.50005001 0.50005001 0 0 0 15.134766 8.2441406 A 0.50005001 0.50005001 0 0 0 15.212891 8.4277344 A 0.50005001 0.50005001 0 0 0 15.214844 8.4316406 A 0.5019685 0.5019685 0 0 0 15.244141 8.4667969 A 0.50005001 0.50005001 0 0 0 15.273438 8.4980469 A 0.5019685 0.5019685 0 0 0 15.289062 8.5136719 L 16.423828 9.6640625 A 0.50113058 0.50113058 0 1 0 17.140625 8.9628906 L 16.128906 7.9453125 L 16.128906 6.7109375 A 0.50005001 0.50005001 0 0 0 15.621094 6.2050781 z "
       transform="matrix(0.26458334,0,0,0.26458334,0,290.64999)"
       id="path1375" />
    <path
       style="color:#000000;font-style:normal;font-variant:normal;font-weight:normal;font-stretch:normal;font-size:medium;line-height:normal;font-family:sans-serif;font-variant-ligatures:normal;font-variant-position:normal;font-variant-caps:normal;font-variant-numeric:normal;font-variant-alternates:normal;font-feature-settings:normal;text-indent:0;text-align:start;text-decoration:none;text-decoration-line:none;text-decoration-style:solid;text-decoration-color:#000000;letter-spacing:normal;word-spacing:normal;text-transform:none;writing-mode:lr-tb;direction:ltr;text-orientation:mixed;dominant-baseline:auto;baseline-shift:baseline;text-anchor:start;white-space:normal;shape-padding:0;clip-rule:nonzero;display:inline;overflow:visible;visibility:visible;opacity:1;isolation:auto;mix-blend-mode:normal;color-interpolation:sRGB;color-interpolation-filters:linearRGB;solid-color:#000000;solid-opacity:1;vector-effect:none;fill:#fee864;fill-opacity:1;fill-rule:nonzero;stroke:none;stroke-width:0.26458338;stroke-linecap:round;stroke-linejoin:round;stroke-miterlimit:4;stroke-dasharray:none;stroke-dashoffset:0;stroke-opacity:1;paint-order:normal;color-rendering:auto;image-rendering:auto;shape-rendering:auto;text-rendering:auto;enable-background:accumulate"
       d="m 2.0996094,293.9668 c -0.5505904,0 -1,0.44941 -1,1 0,0.55059 0.4494096,0.99804 1,0.99804 0.5505904,0 1,-0.44745 1,-0.99804 0,-0.55059 -0.4494096,-1 -1,-1 z"
       id="path864"
       inkscape:connector-curvature="0"
       sodipodi:nodetypes="sssss" />
    <path
       sodipodi:nodetypes="sssss"
       inkscape:connector-curvature="0"
       id="path873"
       d="m 2.0996094,294.08244 c -0.4868567,0 -0.8842448,0.39739 -0.8842448,0.88425 0,0.48685 0.3973881,0.88251 0.8842448,0.88251 0.4868567,0 0.8842448,-0.39566 0.8842448,-0.88251 0,-0.48686 -0.3973881,-0.88425 -0.8842448,-0.88425 z"
       style="color:#000000;font-style:normal;font-variant:normal;font-weight:normal;font-stretch:normal;font-size:medium;line-height:normal;font-family:sans-serif;font-variant-ligatures:normal;font-variant-position:normal;font-variant-caps:normal;font-variant-numeric:normal;font-variant-alternates:normal;font-feature-settings:normal;text-indent:0;text-align:start;text-decoration:none;text-decoration-line:none;text-decoration-style:solid;text-decoration-color:#000000;letter-spacing:normal;word-spacing:normal;text-transform:none;writing-mode:lr-tb;direction:ltr;text-orientation:mixed;dominant-baseline:auto;baseline-shift:baseline;text-anchor:start;white-space:normal;shape-padding:0;clip-rule:nonzero;display:inline;overflow:visible;visibility:visible;opacity:1;isolation:auto;mix-blend-mode:normal;color-interpolation:sRGB;color-interpolation-filters:linearRGB;solid-color:#000000;solid-opacity:1;vector-effect:none;fill:#fed164;fill-opacity:1;fill-rule:nonzero;stroke:none;stroke-width:0.26458338;stroke-linecap:round;stroke-linejoin:round;stroke-miterlimit:4;stroke-dasharray:none;stroke-dashoffset:0;stroke-opacity:1;paint-order:normal;color-rendering:auto;image-rendering:auto;shape-rendering:auto;text-rendering:auto;enable-background:accumulate" />
    <g
       aria-label="$"
       style="font-style:normal;font-weight:normal;font-size:10.58333397px;line-height:1.25;font-family:sans-serif;letter-spacing:0px;word-spacing:0px;fill:#ffa675;fill-opacity:1;stroke:none;stroke-width:0.81768233;stroke-miterlimit:4;stroke-dasharray:none"
       id="text870"
       transform="matrix(0.29306419,0,0,0.35726708,-29.68895,345.658)">
      <path
         d="m 109.49608,-141.42437 q 0,0.31607 -0.24674,0.5261 -0.24674,0.20799 -0.64642,0.24674 v 0.73818 h -0.24062 v -0.72799 q -0.26917,-0.002 -0.50572,-0.051 -0.23654,-0.051 -0.40988,-0.13051 v -0.40375 h 0.0327 q 0.0388,0.0286 0.13867,0.0836 0.0999,0.053 0.19372,0.0877 0.10604,0.0388 0.24674,0.0734 0.14275,0.0327 0.30384,0.0388 v -0.88296 q -0.0816,-0.0163 -0.1509,-0.0305 -0.0693,-0.0163 -0.12847,-0.0326 -0.33239,-0.0836 -0.47717,-0.25082 -0.14477,-0.16925 -0.14477,-0.416 0,-0.30179 0.23654,-0.50979 0.23858,-0.208 0.66477,-0.24266 v -0.55465 h 0.24062 v 0.55058 q 0.20596,0.004 0.42211,0.049 0.21616,0.0449 0.36298,0.10399 v 0.39968 h -0.0286 q -0.15294,-0.0938 -0.32016,-0.16517 -0.16517,-0.0734 -0.43638,-0.0917 v 0.87888 q 0.0612,0.0102 0.13254,0.0286 0.0714,0.0163 0.12439,0.0265 0.30385,0.0653 0.46902,0.2243 0.1672,0.15906 0.1672,0.43435 z m -1.13378,-0.74839 v -0.84218 q -0.21819,0.0163 -0.36705,0.12032 -0.14887,0.10195 -0.14887,0.28548 0,0.18557 0.11012,0.27936 0.11012,0.0938 0.4058,0.15702 z m 0.74838,0.80141 q 0,-0.19169 -0.12031,-0.27938 -0.11828,-0.0897 -0.38745,-0.14069 v 0.84421 q 0.24471,-0.0244 0.37521,-0.12439 0.13255,-0.1 0.13255,-0.29975 z"
         style="font-style:normal;font-variant:normal;font-weight:normal;font-stretch:normal;font-family:MisterVampire;-inkscape-font-specification:MisterVampire;stroke-width:0.81768233;stroke-miterlimit:4;stroke-dasharray:none;fill:#ffa675;fill-opacity:1"
         id="path872"
         inkscape:connector-curvature="0" />
    </g>
  </g>
</svg>
